PathFileType	4	(X/Y/Z)	OpenSim_Sub01_EMGBaseline_Accel.trc
DataRate	CameraRate	NumFrames	NumMarkers	Units	OrigDataRate	OrigDataStartFrame	OrigNumFrames
100	100	30	8	m	100	1902	7604
Frame#	Time	torso_imu_offset_imu	pelvis_imu_offset_imu	tibia_r_imu_offset_imu	femur_r_imu_offset_imu	tibia_l_imu_offset_imu	femur_l_imu_offset_imu	toes_r_imu_offset_imu	toes_l_imu_offset_imu
				X1	Y1	Z1	X2	Y2	Z2	X3	Y3	Z3	X4	Y4	Z4	X5	Y5	Z5	X6	Y6	Z6	X7	Y7	Z7	X8		Y8	Z8	

1902	19.01000000	8.94986710	-1.76496751	6.37385544	9.21331782	1.53619163	1.94399457	9.97096868	1.78951750	-0.20214782	9.61470800	1.47830967	-0.03510874	11.95336798	-3.94691385	1.54110468	9.04930263	2.43294642	0.89022930	5.52687995	-1.77611254	8.20779453	17.14950207	4.37443256	10.21189066
1903	19.02000000	8.99400183	-1.75888444	6.38233142	9.17777903	1.40271595	1.93162922	10.04473058	1.73588661	-0.26071548	9.63417322	1.66239497	-0.03564367	11.72290841	-3.52706332	1.32170255	9.24139193	3.13262557	1.34143355	5.55259935	-1.76687856	8.19796637	17.49908827	4.05555913	9.18957714
1904	19.03000000	9.00787044	-1.73435202	6.31666880	9.18961647	1.27620639	1.91235214	10.10567307	1.84454402	-0.25595887	9.65394859	1.70501658	-0.03149564	11.72532143	-2.97001362	0.78961887	9.57466392	3.79407098	1.78454892	5.45525468	-1.81180493	8.26453367	17.47551879	3.20549877	7.92627457
1905	19.04000000	9.01665427	-1.71022376	6.23227600	9.22805028	1.15782119	1.87665188	10.15201451	1.95235752	-0.23264709	9.67734435	1.59570977	-0.01281985	11.88990697	-2.43631493	0.11762124	9.86499495	4.49571538	2.22586211	5.33262844	-1.87411853	8.35111233	17.15892223	2.09688928	6.53652194
1906	19.05000000	9.05295802	-1.70631188	6.19616883	9.26769501	1.04822825	1.81749205	10.18663909	1.87342794	-0.24956805	9.70351304	1.32992822	0.02636834	12.08200097	-2.10068711	-0.46890605	9.89842684	5.32677040	2.68331492	5.30270293	-1.90944562	8.38952534	16.67397678	1.05540954	5.14482882
1907	19.06000000	9.12022963	-1.71594645	6.21884893	9.31525870	0.97217902	1.74394386	10.19912789	1.60002301	-0.32692794	9.71200407	0.95567718	0.03292336	12.16104394	-2.01974858	-0.82050501	9.63963915	6.21775107	3.10950226	5.36764066	-1.91126558	8.37607845	16.17815481	0.04594390	3.71285014
1908	19.07000000	9.19947279	-1.71207995	6.26731879	9.40214244	0.97294807	1.67747482	10.16884361	1.26155039	-0.45521098	9.66729990	0.56140246	-0.09177628	11.98200519	-2.15918086	-0.84626163	9.19084307	6.97703968	3.40674395	5.44046676	-1.90218964	8.35670553	15.85410391	-1.24420139	2.07697611
1909	19.08000000	9.27207541	-1.67829331	6.31483158	9.54371416	1.07249161	1.63544605	10.10457788	0.97332919	-0.59540898	9.56466367	0.21834273	-0.39097053	11.48876134	-2.45290690	-0.58372116	8.67901575	7.45262931	3.51475728	5.45972676	-1.89557241	8.36415051	15.79253780	-2.91953963	0.20457428
1910	19.09000000	9.32228261	-1.63130680	6.35653882	9.70581305	1.22800415	1.62206929	10.10334916	0.79833312	-0.62315110	9.49197268	-0.05648404	-0.73986145	10.88971188	-2.74743219	-0.44766085	8.29421217	7.61954854	3.48822579	5.44661111	-1.87503648	8.38817110	15.80907165	-4.44477555	-1.53822429
1911	19.10000000	9.33634004	-1.59292010	6.39263197	9.84643408	1.38785799	1.63768944	10.26724815	0.78415710	-0.41089225	9.54671108	-0.25923539	-0.98978526	10.43236144	-2.88418083	-0.87907643	8.22174005	7.48008358	3.39115185	5.43609457	-1.81986215	8.41135812	15.69015613	-5.20517147	-2.73153789
1912	19.11000000	9.32252342	-1.56925904	6.43813497	9.94321699	1.54757738	1.66116915	10.53018933	0.89309322	-0.01974080	9.71390046	-0.43321618	-1.09983801	10.21756175	-2.87037789	-1.66768808	8.40137491	7.09294113	3.10892938	5.44077513	-1.72660774	8.42798200	15.54689353	-5.16727608	-3.25436336
1913	19.12000000	9.30605942	-1.55438749	6.51947267	9.98893113	1.73896929	1.65483954	10.69668300	1.02179666	0.34401297	9.89200427	-0.65798523	-1.11205975	10.23319382	-2.84085990	-2.10209725	8.58393662	6.56023784	2.38958239	5.45602428	-1.60514371	8.44130102	15.73995579	-4.74489377	-3.21558011
1914	19.13000000	9.30226626	-1.54711015	6.64066164	9.98603831	1.97506476	1.58801052	10.64519325	1.10417513	0.52850601	9.99813516	-0.96075995	-1.05779830	10.36202552	-2.90398647	-1.76924979	8.58914830	5.95509036	1.14105564	5.47567288	-1.48091725	8.45060955	16.17496581	-4.07182299	-2.47163199
1915	19.14000000	9.29572437	-1.56124071	6.73826243	9.96464435	2.21033018	1.45199248	10.48382315	1.18984624	0.55469863	10.01143659	-1.21045828	-0.93029044	10.18312419	-3.07968914	-1.18090178	8.45591652	5.26112604	-0.24301416	5.49029082	-1.42464315	8.44273657	15.38632789	-2.41566024	-0.11129920
1916	19.15000000	9.27124826	-1.61028106	6.74365093	9.95929251	2.39020871	1.24547837	10.35841828	1.34412867	0.47483523	9.92793917	-1.25737178	-0.71961155	9.28776752	-3.33552925	-0.97208889	8.26899672	4.45245581	-1.29972839	5.49070695	-1.50971615	8.40391420	11.82180610	0.98841860	4.75774597
1917	19.16000000	9.30218891	-1.66154646	6.69723616	9.99444876	2.48714364	1.01676335	10.34428599	1.54717291	0.33116069	9.82475219	-1.11100956	-0.47396443	8.29009958	-3.10008435	-1.06406055	8.19282581	3.60836170	-1.87345335	5.48064712	-1.72440192	8.34592827	6.42613876	4.99406726	10.62146813
1918	19.17000000	9.52998131	-1.64682640	6.72331176	10.08681209	2.49436441	0.85231492	10.46242999	1.71358612	0.15823343	9.84136074	-0.90343259	-0.28626946	8.59108785	-1.38757005	-0.82878962	8.45310571	2.88906946	-2.04505162	5.47375744	-1.99143882	8.30023532	2.06555857	6.98452999	14.11457096
1919	19.18000000	10.00288423	-1.53523191	6.88287737	10.24037024	2.40754569	0.82424735	10.72822231	1.78191221	0.00527620	10.06748465	-0.75116393	-0.21218171	10.84073250	2.07012334	0.11380143	9.17911532	2.43410652	-1.85250955	5.47360015	-2.23883525	8.29799757	0.75157290	5.38447170	13.36631265
1920	19.19000000	10.48708658	-1.40948737	7.04244769	10.42193398	2.22803924	0.95910766	11.14445149	1.76683108	-0.03432688	10.44020248	-0.71518953	-0.19320717	13.39745222	5.37691965	1.36504319	10.20893708	2.31530992	-1.18833347	5.45301556	-2.41526756	8.36799917	1.80907004	1.82544835	11.08840448
1921	19.20000000	10.71652489	-1.36694148	7.04420885	10.59336087	1.95875004	1.27008957	11.70919803	1.69633311	0.13654918	10.87029371	-0.84064080	-0.15025038	14.31824844	6.36811821	2.40835495	11.32773340	2.58936081	0.05564863	5.38251509	-2.47708670	8.53292165	4.08529076	-1.52840044	10.63742669
1922	19.21000000	10.72286840	-1.40946368	6.90434693	10.74524078	1.61011885	1.69663971	12.38490648	1.58694910	0.54883464	11.29729582	-1.08905694	-0.01174177	13.48950808	4.84665069	3.11719575	12.33439827	3.27342414	1.59529957	5.28275210	-2.43830097	8.73071159	6.71277488	-3.41551796	12.34211237
1923	19.22000000	10.76689776	-1.46542942	6.77295366	10.89028437	1.19839910	2.12145995	13.10658685	1.44639332	1.18246489	11.68288668	-1.35764499	0.28805875	12.20561371	2.13001322	3.66516303	13.03842314	4.35415843	2.84459137	5.21294888	-2.35728672	8.83410190	9.04379470	-3.26956279	14.20081290
1924	19.23000000	11.00399821	-1.46946884	6.75071398	11.04526830	0.75538258	2.46013115	13.80598188	1.28895101	1.96556488	11.99260074	-1.56479835	0.76691766	11.44033156	-0.58825716	4.08098878	13.28521465	5.70238224	3.35511535	5.19298222	-2.27134311	8.73467708	10.58051851	-1.07981636	14.76355726
1925	19.24000000	11.25886871	-1.38041485	6.78126936	11.23736016	0.35858788	2.73026879	14.40722270	1.14910645	2.67620671	12.20173952	-1.69678141	1.30049720	11.10712099	-2.59872420	3.94000756	13.02608852	6.84703654	3.11046294	5.12286871	-2.15174874	8.38502211	11.25372361	1.56658933	14.39776474
1926	19.25000000	11.30648069	-1.16620983	6.78264779	11.48981325	0.09135597	2.96687181	14.83406148	1.05549248	3.07423829	12.28604095	-1.74770719	1.74255503	10.92730712	-3.35170756	2.77364121	12.25175082	7.26672352	2.18396174	4.90559695	-1.96560608	7.77068293	11.08751061	2.89026013	13.77951188
1927	19.26000000	11.09255216	-0.86414616	6.72407202	11.73856559	-0.00235124	3.18277612	15.02563653	0.89330814	3.06192879	12.20075267	-1.64136746	2.01221205	10.68057293	-3.34872104	0.71053515	11.24931392	6.63260605	0.79656324	4.82020916	-1.80017098	7.20164568	10.31666053	2.65531907	13.17563501
1928	19.27000000	10.69424176	-0.56487844	6.61417599	11.85237509	0.09108305	3.37376084	14.93294433	0.43746049	2.65121848	11.88537020	-1.24748423	2.07892862	10.19160263	-3.90005635	-1.66090860	10.53383313	4.76425216	-0.71717280	5.43507656	-1.83515865	7.23742476	9.33805552	1.81394240	12.53797786
1929	19.28000000	10.19144588	-0.32928599	6.46428336	11.74522950	0.34339459	3.54087539	14.52573950	-0.37588932	1.90323178	11.30728744	-0.51887087	1.94359641	9.38874609	-5.76165873	-3.72366331	10.31930058	1.71275189	-2.06354522	7.11653553	-2.20637173	8.14349182	8.44510762	1.15066302	11.86503478
1930	19.29000000	9.66214936	-0.12569445	6.29069789	11.47064840	0.60419223	3.70213320	13.82860852	-1.12299612	1.01685711	10.51800014	0.34062695	1.69665506	8.50494786	-7.98045713	-4.81078772	9.90769999	-1.79419867	-3.07894459	9.60847689	-2.91206273	9.29252068	7.61138539	0.86106573	11.31799538
1931	19.30000000	9.18189424	0.09144997	6.11001189	11.10338290	0.71263193	3.87693754	12.88565213	-1.31643410	0.20931872	9.59608332	1.08846251	1.44138541	7.82669662	-9.32391125	-4.30803101	8.51663277	-4.91102268	-3.63326148	12.51828084	-3.90860328	9.93336656	6.76116127	1.01409724	11.07327278
